<?xml version="1.0" encoding="UTF-8" standalone="no"?>
<!DOCTYPE svg PUBLIC "-//W3C//DTD SVG 1.1//EN" "http://www.w3.org/Graphics/SVG/1.1/DTD/svg11.dtd">
<svg width="100%" height="100%" viewBox="0 0 64 64" version="1.1" xmlns="http://www.w3.org/2000/svg" xmlns:xlink="http://www.w3.org/1999/xlink" xml:space="preserve" xmlns:serif="http://www.serif.com/" style="fill-rule:evenodd;clip-rule:evenodd;stroke-linejoin:round;stroke-miterlimit:2;">
    <g transform="matrix(1.1292,0.65315,-0.737462,1.27496,27.8904,-25.0662)">
        <path d="M43.222,18.372C43.222,15.997 41.045,14.069 38.363,14.069L28.645,14.069C25.964,14.069 23.787,15.997 23.787,18.372L23.787,38.716C23.787,41.091 25.964,43.019 28.645,43.019L38.363,43.019C41.045,43.019 43.222,41.091 43.222,38.716L43.222,18.372Z" style="fill:rgb(150,200,239);"/>
    </g>
    <g transform="matrix(1.30449,-2.70134e-16,3.64355e-16,1.47288,-11.7096,-11.7213)">
        <path d="M43.222,18.372C43.222,15.997 41.045,14.069 38.363,14.069L28.645,14.069C25.964,14.069 23.787,15.997 23.787,18.372L23.787,38.716C23.787,41.091 25.964,43.019 28.645,43.019L38.363,43.019C41.045,43.019 43.222,41.091 43.222,38.716L43.222,18.372Z" style="fill:rgb(81,163,224);"/>
    </g>
    <g transform="matrix(1.12965,-0.652355,0.736565,1.27548,-39.5532,19.8131)">
        <path d="M43.222,18.372C43.222,15.997 41.045,14.069 38.363,14.069L28.645,14.069C25.964,14.069 23.787,15.997 23.787,18.372L23.787,38.716C23.787,41.091 25.964,43.019 28.645,43.019L38.363,43.019C41.045,43.019 43.222,41.091 43.222,38.716L43.222,18.372Z" style="fill:rgb(56,115,180);"/>
    </g>
</svg>
