<?xml version="1.0" encoding="UTF-8" standalone="no"?>
<!DOCTYPE svg PUBLIC "-//W3C//DTD SVG 1.1//EN" "http://www.w3.org/Graphics/SVG/1.1/DTD/svg11.dtd">
<svg width="100%" height="100%" viewBox="0 0 64 64" version="1.1" xmlns="http://www.w3.org/2000/svg" xmlns:xlink="http://www.w3.org/1999/xlink" xml:space="preserve" xmlns:serif="http://www.serif.com/" style="fill-rule:evenodd;clip-rule:evenodd;stroke-linejoin:round;stroke-miterlimit:2;">
    <g transform="matrix(0.979826,0.566751,-0.639911,1.10631,28.437,-16.0599)">
        <path d="M43.222,18.372C43.222,15.997 41.045,14.069 38.363,14.069L28.645,14.069C25.964,14.069 23.787,15.997 23.787,18.372L23.787,38.716C23.787,41.091 25.964,43.019 28.645,43.019L38.363,43.019C41.045,43.019 43.222,41.091 43.222,38.716L43.222,18.372Z" style="fill:rgb(169,199,236);"/>
    </g>
    <g transform="matrix(1.13193,-2.34401e-16,3.16158e-16,1.27805,-5.92469,-4.48034)">
        <path d="M43.222,18.372C43.222,15.997 41.045,14.069 38.363,14.069L28.645,14.069C25.964,14.069 23.787,15.997 23.787,18.372L23.787,38.716C23.787,41.091 25.964,43.019 28.645,43.019L38.363,43.019C41.045,43.019 43.222,41.091 43.222,38.716L43.222,18.372Z" style="fill:rgb(85,130,212);"/>
    </g>
    <g transform="matrix(0.980224,-0.566062,0.639133,1.10676,-30.0852,22.8827)">
        <path d="M43.222,18.372C43.222,15.997 41.045,14.069 38.363,14.069L28.645,14.069C25.964,14.069 23.787,15.997 23.787,18.372L23.787,38.716C23.787,41.091 25.964,43.019 28.645,43.019L38.363,43.019C41.045,43.019 43.222,41.091 43.222,38.716L43.222,18.372Z" style="fill:rgb(45,82,192);"/>
    </g>
</svg>
